<svg width="42" height="47" viewBox="0 0 42 47" fill="none" xmlns="http://www.w3.org/2000/svg">
<path d="M16.3864 0.507054C16.7721 0.504314 17.1431 0.655513 17.4178 0.927389C17.6925 1.19926 17.8484 1.56955 17.8511 1.95677L17.8926 7.79698C17.8953 8.18421 17.7448 8.55667 17.474 8.83242C17.2031 9.10817 16.8343 9.26462 16.4486 9.26736C16.0629 9.2701 15.6918 9.1189 15.4171 8.84703C15.1425 8.57515 14.9866 8.20487 14.9838 7.81764L14.9424 1.97744C14.9396 1.59021 15.0902 1.21775 15.361 0.941998C15.6318 0.666248 16.0006 0.509793 16.3864 0.507054ZM5.10467 5.28879C5.2388 5.15186 5.39853 5.04284 5.5747 4.96798C5.75087 4.89312 5.94002 4.85389 6.13133 4.85253C6.32263 4.85117 6.51232 4.88771 6.68953 4.96006C6.86675 5.03242 7.02801 5.13915 7.16407 5.27416L11.3064 9.37689C11.4463 9.51059 11.5582 9.67091 11.6357 9.84851C11.7132 10.0261 11.7547 10.2174 11.7577 10.4113C11.7608 10.6051 11.7254 10.7976 11.6535 10.9776C11.5816 11.1575 11.4748 11.3213 11.3392 11.4594C11.2037 11.5974 11.042 11.707 10.8638 11.7817C10.6856 11.8564 10.4944 11.8947 10.3012 11.8944C10.1081 11.894 9.91698 11.8551 9.73899 11.7799C9.56101 11.7046 9.39974 11.5945 9.26458 11.456L5.12226 7.3562C4.84766 7.08434 4.69186 6.71412 4.68911 6.32697C4.68636 5.93982 4.83689 5.56743 5.1076 5.29169L5.10467 5.28879ZM27.7348 5.12805C27.8713 5.26271 27.9799 5.42307 28.0544 5.59993C28.129 5.77679 28.1681 5.96668 28.1695 6.15873C28.1708 6.35078 28.1344 6.54121 28.0624 6.71911C27.9903 6.89701 27.884 7.05889 27.7495 7.19548L23.66 11.3538C23.5269 11.4942 23.3672 11.6065 23.1903 11.6843C23.0134 11.7621 22.8228 11.8037 22.6297 11.8068C22.4366 11.8098 22.2449 11.7743 22.0656 11.7021C21.8863 11.63 21.7232 11.5227 21.5857 11.3866C21.4481 11.2505 21.339 11.0882 21.2646 10.9093C21.1902 10.7304 21.152 10.5384 21.1523 10.3445C21.1526 10.1506 21.1914 9.95877 21.2663 9.7801C21.3413 9.60143 21.4509 9.43953 21.5889 9.30386L25.6726 5.14562C25.9433 4.86996 26.3121 4.71357 26.6978 4.71083C27.0834 4.70809 27.4544 4.85923 27.729 5.13101L27.7348 5.12805ZM0.502245 16.6813C0.499495 16.294 0.650086 15.9216 0.920891 15.6458C1.1917 15.3701 1.56053 15.2136 1.94626 15.2109L7.76378 15.1696C8.14951 15.1668 8.52053 15.318 8.79522 15.5899C9.06992 15.8618 9.22578 16.232 9.22853 16.6193C9.23128 17.0065 9.08069 17.379 8.80989 17.6547C8.53908 17.9305 8.17025 18.0869 7.78452 18.0897L1.967 18.131C1.58127 18.1337 1.21025 17.9825 0.935557 17.7106C0.660863 17.4388 0.504996 17.0685 0.502245 16.6813ZM16.5115 18.1211L16.7035 45.1613C16.7051 45.4504 16.7921 45.7326 16.9536 45.9721C17.1151 46.2115 17.3437 46.3974 17.6106 46.5063C17.8775 46.6151 18.1705 46.6419 18.4526 46.5834C18.7346 46.5248 18.993 46.3835 19.195 46.1773L26.5883 38.649C27.6713 37.5459 29.1464 36.9199 30.6891 36.9086L40.0903 36.8418C40.3922 36.8394 40.6858 36.7428 40.9305 36.5653C41.1753 36.3878 41.3589 36.1383 41.456 35.8513C41.553 35.5643 41.5587 35.2541 41.4723 34.9637C41.3858 34.6733 41.2115 34.4171 40.9735 34.2307L18.8594 16.9568C18.6437 16.7881 18.385 16.684 18.113 16.6562C17.841 16.6284 17.5668 16.6781 17.3216 16.7997C17.0765 16.9212 16.8705 17.1097 16.7272 17.3434C16.5839 17.5771 16.5091 17.8467 16.5115 18.1211Z" fill="black"/>
</svg>
